<svg width="280" height="305" viewBox="0 0 280 305" fill="none" xmlns="http://www.w3.org/2000/svg">
<path d="M151.524 0C162.168 0 194.271 5.92561 223.722 28.4642C253.203 51.026 280 90.2158 280 156.675C280 209.886 256.543 245.712 227.221 268.857C197.918 291.988 162.764 302.452 139.317 304.997L139.291 305H20C8.95429 305 0 296.046 0 285V126.774C0 118.239 10.0048 113.627 16.4949 119.17L191.734 268.857L5.66841 77.703C2.03378 73.969 0 68.9638 0 63.7529V20.1369C0 9.0163 8.98275 0.000207572 20.0869 0H151.524Z" fill="black"/>
</svg>
